<?xml version="1.0" encoding="utf-8"?>
<!-- Generator: Adobe Illustrator 22.1.0, SVG Export Plug-In . SVG Version: 6.00 Build 0)  -->
<svg version="1.1" id="Layer_1" xmlns="http://www.w3.org/2000/svg" xmlns:xlink="http://www.w3.org/1999/xlink" x="0px" y="0px"
	 viewBox="0 0 80 68" style="enable-background:new 0 0 80 68;" xml:space="preserve">
<style type="text/css">
	.st0{fill:#FB5FFF;}
	.st1{fill:none;}
	.st2{fill:#FFFFFF;}
</style>
<title>19.6</title>
<desc>Created with Sketch.</desc>
<g>
	<g>
		<path class="st0" d="M10.2,3h14l0,0c1.9,0,3.7,0.9,4.8,2.4l2.4,3.2l0,0c1.1,1.5,2.9,2.4,4.8,2.4h34l0,0c3.3,0,6,2.7,6,6v42l0,0
			c0,3.3-2.7,6-6,6h-60l0,0c-3.3,0-6-2.7-6-6V9l0,0C4.2,5.7,6.9,3,10.2,3z"/>
	</g>
</g>
<g>
	<path class="st1" d="M46.6,31.9h3.9c2.2,0,3.9-1.8,3.9-3.9s-1.8-3.9-3.9-3.9s-3.9,1.8-3.9,3.9V31.9z"/>
	<path class="st1" d="M32.8,45.7h-4c-2.2,0-3.9,1.8-3.9,3.9s1.8,3.9,3.9,3.9c2.2,0,3.9-1.8,3.9-3.9L32.8,45.7L32.8,45.7z"/>
	<path class="st1" d="M28.8,31.9h3.9V28c0-2.2-1.8-3.9-3.9-3.9c-2.2,0-3.9,1.8-3.9,3.9S26.7,31.9,28.8,31.9z"/>
	<rect x="35.7" y="34.8" class="st1" width="7.9" height="7.9"/>
	<path class="st1" d="M50.5,45.7h-3.9v3.9c0,2.2,1.8,3.9,3.9,3.9s3.9-1.8,3.9-3.9S52.7,45.7,50.5,45.7z"/>
	<path class="st2" d="M50.5,42.7h-3.9v-7.9h3.9c2.2,0,4.2-1,5.4-2.6c0.9-1.2,1.5-2.6,1.5-4.2c0-3.8-3.1-6.9-6.9-6.9
		c-1.6,0-3.1,0.6-4.2,1.5c-1.6,1.3-2.6,3.2-2.6,5.4v3.9h-7.9V28c0-2.2-1-4.2-2.6-5.4c-1.2-0.9-2.6-1.5-4.2-1.5
		c-3.8,0-6.9,3.1-6.9,6.9c0,1.6,0.6,3.1,1.5,4.2c1.3,1.6,3.2,2.6,5.4,2.6h3.9v7.9h-4.1c-2.2,0-4.2,1-5.4,2.6
		c-0.9,1.2-1.5,2.6-1.5,4.2c0,3.8,3.1,6.9,6.9,6.9c1.6,0,3.1-0.6,4.2-1.5c1.6-1.3,2.6-3.2,2.6-5.4v-3.9h7.9v3.9c0,2.2,1,4.2,2.6,5.4
		c1.2,0.9,2.6,1.5,4.2,1.5c3.8,0,6.9-3.1,6.9-6.9c0-1.6-0.6-3.1-1.5-4.2C54.7,43.8,52.7,42.7,50.5,42.7z M50.5,24
		c2.2,0,3.9,1.8,3.9,3.9s-1.8,3.9-3.9,3.9h-3.9V28C46.6,25.8,48.3,24,50.5,24z M28.8,24c2.2,0,3.9,1.8,3.9,3.9v3.9h-3.9
		c-2.2,0-3.9-1.8-3.9-3.9S26.7,24,28.8,24z M28.8,53.6c-2.2,0-3.9-1.8-3.9-3.9s1.8-3.9,3.9-3.9h3.9v3.9C32.8,51.8,31,53.6,28.8,53.6
		z M35.7,42.7v-7.9h7.9v7.9H35.7z M50.5,53.6c-2.2,0-3.9-1.8-3.9-3.9v-3.9h3.9c2.2,0,3.9,1.8,3.9,3.9S52.7,53.6,50.5,53.6z"/>
</g>
</svg>
